<svg width="100" height="100" viewBox="0 0 100 100" fill="none" xmlns="http://www.w3.org/2000/svg">
<path d="M50 98C76.5097 98 98 76.5097 98 50C98 23.4903 76.5097 2 50 2C23.4903 2 2 23.4903 2 50C2 76.5097 23.4903 98 50 98Z" fill="black" fill-opacity="0.5" stroke="white" stroke-width="2"/>
<path d="M49.5 24L52.5625 48.5L49.5 51.5625L46.4375 48.5L49.5 24Z" fill="#FF0000"/>
<path d="M49.5 73L52.5625 48.5L49.5 45.4375L46.4375 48.5L49.5 73Z" fill="white"/>
<path d="M25 48.5L49.5 45.4375L52.5625 48.5L49.5 51.5625L25 48.5Z" fill="white"/>
<path d="M74 48.5L49.5 45.4375L46.4375 48.5L49.5 51.5625L74 48.5Z" fill="white"/>
<path d="M53.4597 9.27273V18H52.437L47.6813 11.1477H47.5961V18H46.5392V9.27273H47.562L52.3347 16.142H52.4199V9.27273H53.4597Z" fill="white"/>
<path d="M52.0034 80.4545C51.9522 80.0227 51.7449 79.6875 51.3812 79.4489C51.0176 79.2102 50.5716 79.0909 50.0431 79.0909C49.6568 79.0909 49.3187 79.1534 49.0289 79.2784C48.742 79.4034 48.5176 79.5753 48.3556 79.794C48.1966 80.0128 48.117 80.2614 48.117 80.5398C48.117 80.7727 48.1724 80.973 48.2832 81.1406C48.3968 81.3054 48.5417 81.4432 48.7179 81.554C48.894 81.6619 49.0787 81.7514 49.2718 81.8224C49.465 81.8906 49.6426 81.946 49.8045 81.9886L50.6909 82.2273C50.9181 82.2869 51.171 82.3693 51.4494 82.4744C51.7306 82.5795 51.9991 82.723 52.2548 82.9048C52.5133 83.0838 52.7264 83.3139 52.894 83.5952C53.0616 83.8764 53.1454 84.2216 53.1454 84.6307C53.1454 85.1023 53.0218 85.5284 52.7747 85.9091C52.5304 86.2898 52.1724 86.5923 51.7008 86.8168C51.2321 87.0412 50.6625 87.1534 49.992 87.1534C49.367 87.1534 48.8258 87.0526 48.3684 86.8509C47.9139 86.6491 47.5559 86.3679 47.2946 86.0071C47.036 85.6463 46.8897 85.2273 46.8556 84.75H47.9466C47.975 85.0795 48.0858 85.3523 48.2789 85.5682C48.475 85.7812 48.7221 85.9403 49.0204 86.0455C49.3216 86.1477 49.6454 86.1989 49.992 86.1989C50.3954 86.1989 50.7576 86.1335 51.0787 86.0028C51.3997 85.8693 51.6539 85.6847 51.8414 85.4489C52.0289 85.2102 52.1227 84.9318 52.1227 84.6136C52.1227 84.3239 52.0417 84.0881 51.8798 83.9062C51.7179 83.7244 51.5048 83.5767 51.2406 83.4631C50.9764 83.3494 50.6909 83.25 50.3841 83.1648L49.3102 82.858C48.6284 82.6619 48.0886 82.3821 47.6909 82.0185C47.2931 81.6548 47.0943 81.179 47.0943 80.5909C47.0943 80.1023 47.2264 79.6761 47.4906 79.3125C47.7576 78.946 48.1156 78.6619 48.5645 78.4602C49.0162 78.2557 49.5204 78.1534 50.0772 78.1534C50.6397 78.1534 51.1397 78.2543 51.5772 78.456C52.0147 78.6548 52.3613 78.9276 52.617 79.2741C52.8755 79.6207 53.0119 80.0142 53.0261 80.4545H52.0034Z" fill="white"/>
<path d="M84.4709 53V44.2727H89.7379V45.2102H85.5277V48.1591H89.4652V49.0966H85.5277V52.0625H89.8061V53H84.4709Z" fill="white"/>
<path d="M11.9467 53L9.56037 44.2727H10.6342L12.4581 51.3807H12.5433L14.4013 44.2727H15.5945L17.4524 51.3807H17.5376L19.3615 44.2727H20.4354L18.049 53H16.9581L15.032 46.0455H14.9638L13.0376 53H11.9467Z" fill="white"/>
</svg>
