<svg width="75" height="75" viewBox="0 0 75 75" fill="none" xmlns="http://www.w3.org/2000/svg">
<path d="M38.6116 66.3553L38 67.0295L37.3884 66.3541L37.3884 62.5335L35.7064 63.807L33.948 62.5335L33.948 65.9046L27.8318 70.9988L21.5627 69.5005L21.5627 64.9307L27.9083 59.6867L16.0581 56.1657L13 53.3938L13 49.4233L29.8196 35.0397L30.9664 25.2258L34.789 21.9296C35.1946 13.293 35.5535 8.82066 38 5C40.4465 8.82066 40.8054 13.2941 41.211 21.9308L45.0336 25.227L46.1804 35.0409L63 49.4245L63 53.395L59.9419 56.1669L48.0917 59.6879L54.4373 64.9319L54.4373 69.5017L48.1682 71L42.052 65.9058L42.052 62.5346L40.2936 63.8082L38.6116 62.5346L38.6116 66.3553Z" fill="white"/>
</svg>
