<svg width="75" height="75" viewBox="0 0 75 75" fill="none" xmlns="http://www.w3.org/2000/svg">
<path d="M38.125 69.6636L37.5 71L36.875 69.6636C36.875 69.6636 36.2718 69.6731 36.25 69.4579C36.1458 68.4299 35.9375 65.243 35.9375 65.243L35.7292 61.6449L35.625 65.1402H32.1875L31.9792 62.2617L30.9375 65.243L24.2708 66.0654C23.3798 65.1561 22.9963 64.5446 22.5 63.2897L30.625 55.271V52.8037L15.5208 56.9159H15V46.6355C15 46.6355 15.0264 46.2243 15.2083 46.2243C15.3903 46.2243 15.4167 46.6355 15.4167 46.6355V50.8505L31.25 36.7664V35.7383C31.25 35.7383 32.9167 33.1682 33.8542 27C34.3877 23.4899 35 20.729 35.4167 16.7196C35.6202 14.761 35.4659 13.6448 35.625 11.6822C36.0417 6.54206 37.5 5 37.5 5C37.5 5 38.9583 6.54206 39.375 11.6822C39.5341 13.6448 39.3798 14.761 39.5833 16.7196C40 20.729 40.6123 23.4899 41.1458 27C42.0833 33.1682 43.75 35.7383 43.75 35.7383V36.7664L59.5833 50.8505V46.6355C59.5833 46.6355 59.6097 46.2243 59.7917 46.2243C59.9736 46.2243 60 46.6355 60 46.6355V56.9159H59.4792L44.375 52.8037V55.271L52.5 63.2897C52.0037 64.5446 51.6202 65.1561 50.7292 66.0654L44.0625 65.243L43.0208 62.2617L42.8125 65.1402H39.375L39.2708 61.6449L39.0625 65.243C39.0625 65.243 38.8542 68.4299 38.75 69.4579C38.7282 69.6731 38.125 69.6636 38.125 69.6636Z" fill="#FF0000"/>
</svg>
